<?xml version="1.0" encoding="UTF-8"?><svg xmlns="http://www.w3.org/2000/svg" viewBox="0 0 2187.09 2808.78"><defs><style>.cls-1{fill:#fff;stroke:#33348d;stroke-miterlimit:10;}.cls-1,.cls-2,.cls-3,.cls-4,.cls-5{stroke-width:10px;}.cls-6{letter-spacing:0em;}.cls-7{font-size:300px;}.cls-7,.cls-2,.cls-8{fill:#018ede;}.cls-7,.cls-8{font-family:ROGFonts-Regular, 'ROG Fonts';}.cls-2,.cls-3,.cls-4,.cls-5{fill-rule:evenodd;stroke:#272525;}.cls-3{fill:#016199;}.cls-4{fill:#22adfe;}.cls-8{font-size:180px;}.cls-9{letter-spacing:0em;}.cls-5{fill:#b3b3b3;}</style></defs><g id="Layer_3"><path class="cls-1" d="m6.12,279.7L1093.55,5.16l1087.43,274.55,1.11,1701.19c-62.68,122.53-187.53,327.16-414.66,509.19-264.94,212.32-534.02,285.67-673.88,313.6-144.61-29.2-428.76-107.25-702.05-336.85-206.46-173.45-323.91-363.82-386.49-485.94l1.12-1701.19Z"/></g><g id="Layer_1"><g><path class="cls-5" d="m1103.71,1688.36h106.07v-106.06h-106.07v106.06Zm0-236.95h106.07v106.07h-106.07v-106.07Zm-130.89,0h106.07v106.07h-106.07v-106.07Zm0,236.95h106.07v-106.06h-106.07v106.06Z"/><path class="cls-3" d="m759.87,1389.24l-203.51-203.51-315.27,315.27-52.22,52.23v-107.79H53.65v242.91h0l-.17,246.32c199.5,382.45,552.32,685.14,1037.81,784.44,485.49-99.3,838.31-401.99,1037.81-784.44l-.16-246.32h0v-242.91h-135.22v107.79l-52.23-52.23-315.27-315.27-203.51,203.51,95.62,95.61,107.89-107.89,219.65,219.66,91.75,91.73h55.94l.14,212.4c-193.07,351.25-510.49,592.02-902.41,679.91-391.92-87.89-709.34-328.66-902.41-679.91l.14-212.4h55.93l91.74-91.73,219.66-219.66,107.89,107.89,95.62-95.61Z"/><polygon class="cls-2" points="1310.96 1468.71 1530.62 1688.37 1721.86 1688.37 1406.58 1373.09 1091.31 1057.81 776.03 1373.09 460.75 1688.37 651.99 1688.37 871.65 1468.71 1091.31 1249.05 1310.96 1468.71"/><path class="cls-2" d="m1091.31,962.11l331.42,331.49,203.51-203.51,288.88,287.96,213.63-.23-.69-1065.05L1091.31,51.03v110.99c64.04,0,115.95,51.91,115.95,115.96,0,39.35-19.6,74.11-49.57,95.08l42.95,478.08h-109.33v110.99Z"/><path class="cls-4" d="m1091.31,962.11l-331.43,331.49-203.51-203.51-288.88,287.96-213.63-.23.7-1065.05L1091.31,51.03v110.99c-64.04,0-115.96,51.91-115.96,115.96,0,39.35,19.61,74.11,49.57,95.08l-42.95,478.08h109.33v110.99Z"/></g></g><g id="Layer_2"><text class="cls-8" transform="translate(390.67 2140.76)"><tspan x="0" y="0">Innovation</tspan></text><text class="cls-7" transform="translate(284.01 1976.42)"><tspan x="0" y="0">Arm</tspan><tspan class="cls-9" x="817.19" y="0">o</tspan><tspan class="cls-6" x="1082.39" y="0">ur</tspan></text></g></svg>