<?xml version="1.0" encoding="utf-8"?>
<!-- Generator: Adobe Illustrator 23.0.2, SVG Export Plug-In . SVG Version: 6.00 Build 0)  -->
<svg version="1.1" id="Layer_1" xmlns="http://www.w3.org/2000/svg" xmlns:xlink="http://www.w3.org/1999/xlink" x="0px" y="0px"
	 viewBox="0 0 464.4 161.2" style="enable-background:new 0 0 464.4 161.2;" xml:space="preserve">
<style type="text/css">
	.st0{fill:#6D6E71;}
	.st1{fill:#EF7724;}
</style>
<title>logo</title>
<g>
	<path class="st0" d="M108.8,104.4c0.4,0.2,0.8,0.3,1.2,0.2c0.4-0.1,0.8-0.3,1.1-0.7c0.2-0.4,0.3-0.8,0.2-1.2c0-0.2-0.1-0.4-0.2-0.5
		c-0.1-0.2-0.3-0.3-0.4-0.4c-0.4-0.2-0.8-0.3-1.2-0.2c-0.5,0-0.9,0.2-1.1,0.7c-0.2,0.3-0.3,0.7-0.2,1.1
		C108.2,103.8,108.5,104.2,108.8,104.4z"/>
	<path class="st0" d="M115.2,108.9c0.1,0.2,0.2,0.5,0.5,0.7c0.1,0.1,0.3,0.2,0.4,0.2c0.2,0.1,0.5,0.1,0.8,0c0.5,0,0.9-0.3,1.1-0.7
		c0.2-0.3,0.3-0.7,0.2-1.1c-0.1-0.4-0.3-0.8-0.6-1.1c-0.4-0.2-0.8-0.2-1.2-0.2h-0.2c-0.4,0.1-0.7,0.3-0.9,0.7
		c-0.1,0.1-0.1,0.2-0.1,0.3c-0.2,0.2-0.2,0.6-0.1,0.9C115.1,108.7,115.1,108.9,115.2,108.9z"/>
	<path class="st0" d="M110.2,96.2c0.3,0.2,0.7,0.3,1,0.2h0.2c0.4,0,0.9-0.3,1.1-0.7c0.2-0.4,0.3-0.8,0.2-1.2c-0.1-0.4-0.3-0.8-0.7-1
		c-0.3-0.2-0.6-0.3-0.9-0.2h-0.3c-0.4,0.1-0.8,0.3-1.1,0.7c-0.2,0.4-0.3,0.8-0.2,1.2C109.6,95.6,109.8,95.9,110.2,96.2z"/>
	<path class="st0" d="M115.9,110.5l-0.2,3.2c0.2,0,0.4,0.1,0.6,0.1c0.2,0,0.3,0.1,0.4,0.1l0.2-3.3h-0.7
		C116.1,110.6,116,110.6,115.9,110.5z"/>
	<path class="st0" d="M118.2,93.2c0.2,0.2,0.4,0.2,0.7,0.3h0.5c0.4-0.1,0.8-0.3,1.1-0.7c0.2-0.4,0.3-0.8,0.3-1.2
		c-0.1-0.4-0.4-0.8-0.8-1c-0.4-0.2-0.8-0.3-1.2-0.3c-0.4,0.1-0.8,0.3-1.1,0.7c-0.2,0.4-0.3,0.8-0.2,1.2
		C117.6,92.6,117.8,93,118.2,93.2z"/>
	<path class="st0" d="M124.2,93.1c0.3,0.1,0.7,0.2,1,0.2h0.2c0.4-0.1,0.8-0.3,1.1-0.7c0.2-0.4,0.3-0.8,0.2-1.2c0-0.4-0.3-0.8-0.7-1
		c-0.2-0.2-0.6-0.3-0.9-0.3c-0.1,0-0.2,0.1-0.3,0.1c-0.5,0-0.9,0.3-1.1,0.7c-0.2,0.3-0.3,0.7-0.2,1.1
		C123.7,92.4,123.9,92.8,124.2,93.1z"/>
	<path class="st0" d="M119.2,85.9c0.4-0.1,0.8-0.3,1.1-0.7c0.2-0.4,0.3-0.8,0.2-1.2c-0.1-0.4-0.3-0.7-0.7-1c-0.3-0.2-0.7-0.3-1-0.2
		h-0.2c-0.4,0.1-0.8,0.3-1.1,0.7c-0.2,0.4-0.3,0.8-0.2,1.2c0,0.4,0.3,0.8,0.6,1c0.3,0.2,0.6,0.3,0.9,0.2H119.2z"/>
	<path class="st0" d="M116,117.5c0.1,0,0.2,0,0.2-0.1c0.3-0.1,0.6-0.3,0.9-0.5c0.2-0.4,0.3-0.8,0.2-1.2c-0.1-0.4-0.4-0.7-0.7-0.9
		c-0.1-0.1-0.3-0.2-0.4-0.2c-0.2-0.1-0.5-0.1-0.8-0.1c-0.1,0.1-0.1,0.1-0.2,0.1c-0.3,0.1-0.6,0.3-0.9,0.5c-0.2,0.3-0.3,0.7-0.2,1.1
		c0,0.4,0.2,0.8,0.7,1c0.1,0.1,0.3,0.2,0.4,0.2C115.5,117.5,115.7,117.5,116,117.5z"/>
	<path class="st0" d="M115.2,112.1l0.1-1.9l-0.1-0.1c-0.5-0.3-0.8-0.8-0.9-1.4c-0.1-0.4-0.1-0.8,0.1-1.2l-3.3-2.5
		c-0.3,0.2-0.6,0.3-1,0.4c-0.6,0.1-1.3,0-1.8-0.4c-0.1,0-0.2-0.1-0.3-0.2l-1.1,0.3l-1.1,0.4l-0.5,0.2c0,0.5-0.1,0.9-0.4,1.3
		l-0.3,0.3c-0.3,0.3-0.8,0.5-1.2,0.5l-0.2,1.5l-0.2,1.5l-0.1,1.4c0,0.1,0,0.1,0.1,0.1v0.1c0.1,0,0.1,0.1,0.2,0.1
		c0.4,0.3,0.7,0.8,0.8,1.3c0,0.4,0,0.7-0.1,1.1l0.8,0.4l1.3,0.9l0.5,0.3c0.1-0.1,0.3-0.1,0.5-0.2h0.1c0.7-0.1,1.3,0,1.9,0.4
		c0.2,0.1,0.4,0.3,0.5,0.5l1.6-0.5l2.2-0.8c-0.1-0.5,0-1.1,0.3-1.5c0.3-0.5,0.8-0.8,1.3-1L115.2,112.1z"/>
	<path class="st0" d="M108.5,117.6c-0.4-0.2-0.8-0.3-1.2-0.2H107c-0.3,0.1-0.6,0.4-0.8,0.7c-0.2,0.2-0.3,0.5-0.3,0.8v0.2
		c0,0,0,0.1,0.1,0.1c0,0.5,0.3,0.9,0.7,1.1c0.1,0,0.2,0.1,0.3,0.1c0.3,0.1,0.6,0.1,0.9,0.1c0.4-0.1,0.8-0.3,1.1-0.7
		c0.2-0.4,0.3-0.8,0.2-1.2C109.1,118.2,108.8,117.9,108.5,117.6z"/>
	<path class="st0" d="M137.3,142.8c-3.6-1.9-7.9-1.4-11,1.1c-0.3,0.3-0.7,0.5-1.1,0.8c-2,1-4.2,1.2-6.4,0.7
		c-0.9-0.3-1.8-0.7-2.6-1.1c-0.6-0.4-1-1.1-1-1.9c-0.1-0.3-0.1-0.7-0.2-1c-0.2-1.2-0.1-2.5,0.2-3.7c0.2-0.7,0.5-1.3,1-1.8
		c0.4-0.5,0.9-0.9,1.3-1.3l1.3-1.3c2.2-2.2,4.4-4.4,6.4-6.8c4.4-5.2,8.2-10.9,11.4-16.9l-4.7-2.8l-0.8-0.4l0.3-0.8l6.8-21l-11.9-4.1
		l-1-0.2l0.2-1l2.2-7.3l-2.6-0.8l-6-1.6c-0.1,0.4-0.2,1-0.3,1.3c-0.1,0.7-0.3,1.3-0.5,2c-0.5,1.2-1.2,2.3-2.1,3.3
		c-0.3,0.4-0.6,0.8-1,1.1c-1.3,1.2-2.6,2.3-4.1,3.2c-1.4,1-2.9,2-4.2,3c-0.3,0.3-0.8,0.5-1.1,0.9s-0.9,0.8-1.3,1.1
		c-0.5,0.4-1,0.9-1.4,1.4l-0.2,0.2c-0.4,0.5-1,1.1-1.4,1.8c-0.5,0.8-1,1.6-1.4,2.4c-0.6,1.3-2.5,6.8-7.7,2.6c-1.9-1.5-1.5-2.1-1-4.6
		s0.9-4,1.2-5.3c0.4-1.8,0.8-1.2,2.4-1.6c3.4-0.9,5.9-3.8,6.1-7.2c0.2-2.6-1.5-6.8-4.4-8.2c-0.6-0.2-1-0.4-1.5-0.7l-0.4,4.2
		c0.9,0.5,1.6,1.3,2,2.2c0.2,0.7,0.3,1.4,0.3,2.1c-0.2,2-1.8,3.5-3.7,3.7l-6,15l8,15.8l0.3,0.8l-0.7,0.4l-7.7,6l6.3,16l7.8-3.1
		l1.4-0.5h0.2l1.4-0.5l1-0.4l0.3-0.1l0.7-0.2l0.3,1l0.1,0.3l4.2,11.2l2.5,6.9h2.5l2.6,0.1l6.4,0.1l4.5,0.1c0.4-0.3,0.8-0.6,1.2-0.8
		h0.1c1-0.3,2.1-0.3,3.2-0.1h0.1c1.6,0.5,2.8,1.6,3.3,3.2l4.7,2.5v-1.2C142.2,147.6,139.7,144,137.3,142.8z M105.5,92.3
		c0.1-0.2,0.2-0.3,0.3-0.4c0.2-0.1,0.3-0.2,0.5-0.3c0.1,0.3,0.3,0.6,0.5,0.9c0.1,0.1,0.2,0.1,0.3,0.2c0.4,0.3,0.8,0.4,1.2,0.4
		l0.3,0.4c-0.3,0.4-0.5,0.9-0.4,1.4c-0.4,0.3-0.9,0.4-1.4,0.3c-0.4,0-0.7-0.1-1-0.3l-0.1-0.1C105.1,94.3,104.9,93.2,105.5,92.3
		C105.5,92.4,105.5,92.3,105.5,92.3z M114,117.6l-2.9,1l-1.2,0.4c0,0.4-0.2,0.9-0.4,1.2c-0.3,0.4-0.8,0.8-1.3,0.9l-0.2,2.6
		c0.1,0,0.1,0,0.1,0.1c0.9,0.5,1.2,1.5,0.7,2.4c0,0.1-0.1,0.2-0.2,0.3c-0.4,0.6-1,0.9-1.6,0.9c-0.4,0-0.8-0.1-1.1-0.3h-0.1
		c-0.9-0.6-1.1-1.9-0.4-2.8c0.1-0.2,0.3-0.4,0.5-0.5c0.2-0.1,0.3-0.1,0.5-0.2l0.2-2.5c-0.2,0-0.3-0.1-0.4-0.2
		c-0.1,0-0.2-0.1-0.3-0.2c-0.4-0.3-0.6-0.7-0.7-1.2c-0.1-0.4-0.1-0.7,0-1.1l-0.7-0.5l-1.4-1l-0.2-0.1l-0.3-0.2
		c-0.2,0.1-0.4,0.2-0.7,0.2c-0.1,0-0.3,0.1-0.4,0.1c-0.5,0-0.9-0.2-1.3-0.4c-0.2-0.1-0.3-0.2-0.4-0.3l-2.4,0.9
		c0,0.4-0.1,0.8-0.3,1.1c-0.7,0.9-1.9,1.1-2.9,0.5c-0.9-0.6-1.1-1.8-0.5-2.7c0,0,0,0,0,0c0.7-0.8,1.9-1,2.8-0.3
		c0.1,0,0.2,0.1,0.3,0.2l2.3-0.9c0-0.6,0.1-1.1,0.4-1.6c0.4-0.5,0.9-0.8,1.5-0.9c0.1,0,0.1,0,0.2-0.1l0.2-1.9l0.3-2.5
		c-0.1,0-0.2,0-0.2-0.1h-0.1c-0.5-0.3-0.9-0.8-1-1.4c0-0.4,0-0.8,0.1-1.2l-2.1-1.3c-0.7,0.3-1.5,0.3-2.2-0.1
		c-0.9-0.6-1.1-1.8-0.5-2.7c0,0,0-0.1,0.1-0.1c0.6-0.9,1.9-1.1,2.8-0.5c0.7,0.4,1.1,1.3,0.9,2.1l2,1.3v0.1c0.3-0.2,0.6-0.3,1-0.4
		h0.7c0.4,0,0.8,0.1,1.1,0.3c0.1,0.1,0.1,0.1,0.2,0.1h0.1l1.3-0.5l1.1-0.3l0.4-0.1c0-0.4,0.1-0.8,0.3-1.1c0.4-0.5,0.9-0.9,1.5-1h0.1
		l0.3-4v-0.1c-0.5-0.3-0.9-0.8-1-1.4c-0.1-0.6,0-1.2,0.3-1.8h0.1l-0.4-0.9c-0.4,0.1-0.9,0-1.2-0.3c-0.2-0.1-0.4-0.3-0.5-0.4
		c-0.4-0.7-0.4-1.5,0-2.2c0.7-0.9,1.9-1.1,2.9-0.5c0.9,0.6,1.1,1.9,0.4,2.8c0,0.1-0.1,0.1-0.1,0.2l0.2,0.5c0.1,0,0.2-0.1,0.3-0.1
		h0.4c0.5,0,0.9,0.1,1.3,0.4c0.2,0.1,0.3,0.2,0.4,0.3l2.3-0.7l1-0.3l0.5-0.2c-0.1-0.5,0.1-1,0.4-1.4c0.2-0.4,0.6-0.8,1.1-0.9
		l-0.2-3.3c-0.2-0.1-0.4-0.2-0.5-0.3c-0.5-0.3-0.9-0.8-1-1.4c-0.1-0.6,0-1.2,0.3-1.8l0.2-0.2l-0.2-0.3c-0.2,0-0.5,0-0.7-0.1
		c-0.3,0-0.5-0.1-0.8-0.2c-0.1-0.1-0.2-0.2-0.2-0.3c-0.7-0.6-0.8-1.7-0.2-2.4c0-0.1,0.1-0.2,0.2-0.2c0.2-0.3,0.6-0.5,1-0.5
		c0.5-0.1,1.1,0,1.5,0.2c0.9,0.5,1.2,1.7,0.7,2.6c0,0.1-0.1,0.1-0.1,0.2c0,0.1,0,0.1-0.1,0.1l0.2,0.3h0.4c0.5,0,1,0.1,1.4,0.4
		c0.1,0.1,0.3,0.2,0.4,0.3l1.4-0.3c0.1-0.2,0.2-0.5,0.3-0.8c0.6-0.9,1.8-1.1,2.8-0.5h0.1c0.9,0.6,1.1,1.8,0.5,2.7
		c-0.2,0.2-0.4,0.4-0.7,0.5c-0.7,0.4-1.5,0.4-2.2,0l-0.5-0.5l-1.2,0.2c0.1,0.6-0.1,1.1-0.4,1.5c-0.3,0.4-0.7,0.7-1.2,0.9l0.2,3.2
		l0.7,0.3c0.5,0.3,0.9,0.8,1,1.3l1.3-0.1c0.1-0.3,0.3-0.5,0.4-0.8c0-0.1,0.1-0.2,0.3-0.3l-0.4-0.8c-0.5,0-1.1-0.1-1.5-0.4
		c-1-0.6-1.2-2-0.6-2.9c0,0,0,0,0-0.1c0.7-1,2.1-1.2,3.1-0.5c1,0.6,1.3,1.8,0.7,2.7c-0.1,0.1-0.1,0.2-0.2,0.3c0,0.1,0,0.2-0.1,0.2
		l0.3,0.9h0.3c0.5,0,0.9,0.1,1.3,0.3c0.3,0.2,0.5,0.4,0.7,0.7l1.9-0.5c0-0.4,0.1-0.8,0.3-1.2c0.7-0.9,2.1-1.2,3.1-0.5
		c1,0.6,1.3,1.8,0.8,2.8c0,0.1-0.1,0.1-0.1,0.2c-0.8,1-2.1,1.2-3.2,0.5c-0.1-0.1-0.3-0.2-0.4-0.3l-1.9,0.5c-0.1,0.4-0.2,0.8-0.4,1.2
		c-0.2,0.3-0.5,0.5-0.9,0.7l0.3,2.3l0.7,0.3c1,0.6,1.2,1.9,0.6,2.9c0,0,0,0.1-0.1,0.1c-0.6,0.8-1.7,1.1-2.6,0.8
		c-0.2,0-0.3-0.1-0.4-0.2c-1-0.6-1.3-1.8-0.7-2.7c0.1-0.1,0.1-0.2,0.2-0.3c0.2-0.3,0.5-0.5,0.9-0.7l-0.2-2.2
		c-0.4-0.1-0.8-0.2-1.1-0.4c-0.3-0.2-0.6-0.5-0.8-0.9h-1.6c0,0.2-0.1,0.3-0.2,0.5c-0.1,0-0.1,0.1-0.2,0.2l0.3,0.3
		c0.5,0,0.9,0.1,1.3,0.4c0.9,0.5,1.2,1.7,0.7,2.6c0,0.1-0.1,0.1-0.1,0.2c-0.6,1-2,1.2-2.9,0.6c0,0,0,0-0.1,0
		c-0.9-0.6-1.2-1.9-0.5-2.9c0.1,0,0.1-0.1,0.2-0.2l-0.2-0.3c-0.2,0.1-0.5,0.1-0.8,0.1c-0.4-0.1-0.8-0.2-1.1-0.4
		c-0.1-0.1-0.3-0.2-0.4-0.3l-1.1,0.3l-1,0.3l-1.8,0.4c0.1,0.5,0,1.1-0.3,1.5c-0.4,0.5-0.9,0.9-1.5,1h-0.3l-0.1,1.6l-0.2,2.2
		c0,0.1,0.1,0.1,0.2,0.1v0.1c0.5,0.3,0.9,0.8,1,1.4c0.1,0.4,0,0.8-0.1,1.2l3.2,2.3l0.1,0.2c0.2-0.2,0.6-0.3,0.9-0.3
		c0.6-0.1,1.3,0,1.9,0.3l0.3,0.3l0.4-0.1l1.3-0.4c0-0.4,0.1-0.8,0.3-1.2c0.7-0.9,1.9-1.1,2.9-0.4c0.8,0.8,0.7,2.1,0,2.8
		c-0.6,0.6-1.5,0.7-2.3,0.4c-0.1,0-0.2-0.1-0.3-0.2l-1.6,0.5c0,0.4,0,0.8-0.2,1.2c0,0.1-0.1,0.2-0.2,0.3c-0.2,0.5-0.7,0.8-1.2,0.9
		l-0.2,3.7c0.5,0.4,0.8,0.9,0.9,1.4c0.1,0.4,0,0.8-0.1,1.1l0.9,0.7l0.8,0.5c0.7-0.4,1.5-0.4,2.1,0.1c0.9,0.4,1.2,1.5,0.7,2.3
		c-0.1,0.1-0.1,0.2-0.2,0.3c-0.7,0.9-1.9,1.1-2.9,0.5l-0.5-0.5c-0.2-0.5-0.3-1-0.2-1.5l-1.6-1.3c-0.2,0.2-0.5,0.4-0.8,0.3h-0.1
		c-0.3,0.1-0.6,0.1-0.9,0c-0.3,0-0.6-0.1-0.9-0.3C114.2,117.7,114.1,117.7,114,117.6L114,117.6z"/>
	<path class="st0" d="M105.9,104.9l1.1-0.3l0.7-0.2c-0.1-0.2-0.2-0.5-0.2-0.8v-0.1l-0.4,0.1l-1.1,0.4l-1,0.3
		c0.2,0.2,0.3,0.5,0.3,0.8L105.9,104.9z"/>
	<path class="st0" d="M102.9,107.3h0.3c0.4-0.1,0.7-0.3,1-0.7c0.1-0.2,0.2-0.4,0.3-0.5v-0.7c-0.1-0.4-0.4-0.8-0.8-1l-0.7-0.3h-0.2
		c-0.1,0-0.2,0-0.3,0.1c-0.4,0-0.8,0.3-1,0.7h-0.1c-0.2,0.3-0.3,0.7-0.2,1.1c0.1,0.2,0.1,0.4,0.2,0.5s0.3,0.3,0.4,0.5
		C102.2,107.2,102.6,107.3,102.9,107.3z"/>
	<path class="st0" d="M103.1,114.3v-0.1c0-0.2-0.1-0.3-0.2-0.4c-0.1-0.2-0.2-0.4-0.4-0.5c-0.3-0.2-0.6-0.3-1-0.3h-0.3
		c-0.4,0.1-0.7,0.3-1,0.7c-0.3,0.3-0.4,0.8-0.3,1.2c0.1,0.4,0.4,0.8,0.8,0.9c0.2,0.2,0.6,0.3,0.9,0.3h0.3c0.4-0.1,0.7-0.3,1-0.5
		c0.1-0.1,0.1-0.1,0.1-0.2s0.2-0.3,0.2-0.5L103.1,114.3z"/>
	<path class="st0" d="M104.6,116.2l-1-0.5h-0.1c-0.1,0.2-0.2,0.3-0.3,0.4l1.4,1l0.9,0.7c0.1,0,0.1,0,0.1-0.1
		c0.1-0.1,0.2-0.3,0.3-0.4L104.6,116.2z"/>
</g>
<path class="st0" d="M53.8,98.5c-0.6,0.3-1.2,0.5-1.9,0.4c-1.6-0.2-2.7-1.6-2.5-3.2l-2.6-1.6l-8.5-5.2l-11-2l-2.1-0.3l-0.9,5.9
	c-4.4-1.3-8.6-2.4-12.9-3.4c0.8-5.5,2.5-10.9,3.7-15.2l-4.7-4.7l-6.1-6.9L4,62l0.1-0.5l2.6-12.9c-1.8-0.3-3.1-1.9-3-3.7
	c0.2-1,0.7-1.9,1.5-2.4l-1.9-3c-1.8,1.1-3,3-3.2,5.1C0,44.7,0,45,0,45.2v0.1c0.1,2.9,1.9,5.4,4.6,6.5c0.1,2.2-1.2,3.5-2.4,9.1
	c-0.7,1.4-0.6,3.1,0.3,4.4L6.3,71c1.5,2.2,3,3.3,0.8,7.4c-2.7,5.2-4.4,10.9-5,16.7c-0.5,4.4-0.5,8.9,0.1,13.3l4.7-3.4
	c1.2,7.1,7,19.5,12.5,23.5l-5.4,5.8c3.5,3.9,7.5,7.2,12,10l1.2-2l6.6-11.1l3.2,1.8l10.2-15.5l-8.2-6.8l5.4-7.8
	c-2.4-2.6-4-5.9-4.7-9.3l4.3,0.7c1.4,0.2,1.9-0.2,1.6,1.2c-0.3,3.5,2.2,6.6,5.7,7c2.1,0.3,4.1-0.5,5.5-2.1L53.8,98.5z M41.9,115.5
	c2.2,1.3,1.8,3.1,1,4.1c-0.9,1.6-4.6-0.2-5.3-0.8c-3-2.5-6.2-6.6-10.3-8.6c-1.1-0.5-2.4-0.9-3.6-1c-1.1,4,1.1,8.9,3.6,12.5
	c0.8,1.3,1.7,2.5,2.7,3.5c1,0.9,5.4,3.1,3.7,4.6c-1.2,2.4-5.1,1-5.6,0.4c-0.1-0.1-0.3-0.3-0.4-0.4s-0.3-0.3-0.4-0.5
	c-5.1-5.2-8.9-11.9-6.3-20.2c-9.4-0.9-9.9-9.4-10-13.2c-0.2-5.8,3.1-6.3,3-0.5c-0.1,5.3,1,10.2,8,10.5c1.6-2.5,3.9-6.2,3.1-9.2
	s1-3.9,2.2-2.9c0.6,0.6,0.9,1.3,1,2.1c0.6,1.3,0.1,4.3-1,6.9c-0.5,1.2-1.3,2.2-2.3,3.1c0.8,0.1,1.6,0.3,2.3,0.5
	C33,108.3,37.4,112.1,41.9,115.5L41.9,115.5z"/>
<path class="st0" d="M58.8,12.7c-17.7,1.1-33.3,7.1-37.4,12.1C33.1,12.7,45.7,5.5,58.4,2.2C59.9,5.5,60.1,9.3,58.8,12.7z"/>
<path class="st1" d="M83.4,15.1c-6.7-1.7-13.5-2.5-20.4-2.4c1.3-3.7,1.1-7.8-0.4-11.4c7.6-1.5,15.5-1.6,23.2-0.3
	C86.5,5.9,85.2,10.5,83.4,15.1z"/>
<path class="st1" d="M12.8,132.9c-5.3-6.4-8.9-14-10.3-22.2l3.4-2.4c2.1,7.4,5.4,15,10.6,20.8L12.8,132.9z"/>
<path class="st1" d="M55.1,96.9c0.1-0.2,0.1-0.4,0.1-0.5c0.3-3-3.2-4.1-5-2.5h-0.1l-10.9-6.7L38.8,87l-15.9-3.4l-1,5.8l-8.4-1.8
	l3.7-13.7l0.1-0.5l-0.4-0.4l-5.1-5.1l-5.8-6.5l2.8-13.4c0.8-0.6,1.4-1.5,1.5-2.5c0-0.6-0.1-1.1-0.3-1.6c-0.5-1.1-1.6-1.8-2.7-2H6.6
	l-2.2-3.1c1-0.4,2.2-0.6,3.3-0.4c3.8,0.4,6.6,3.9,6.3,7.7c-0.3,2.3-1.7,4.4-3.7,5.5c-1.2,1.9-0.8,3.3-1.1,7.1
	c-0.1,2.3-0.4,2.8,1.4,3.9c6.4,3.6,11.3,1.5,15.7-1.1c3.5-2,7.7-3.5,8.5-7.9c0.6-3.5,8.5-11.4,17-12.3s30.5-1.9,35.8,2
	s6.3,7.9,0.6,17.7C83.3,69,72.8,78.9,65.3,83c-4.5,2.4-11.8,4.2-16,0.7c-0.6-0.5-1.3-0.9-2.1-1.2c-7.4-2.7-6.3,3.6-1.1,7.3
	c2.1,1.5,1.4,1.4,3.5,0.4c0.5-0.2,1.1-0.3,1.6-0.4l0,0c0.6-0.1,1.2-0.1,1.9,0l0,0c3.4,0.5,5.8,3.7,5.4,7.1c0,0.6-0.2,1.2-0.4,1.8
	L55.1,96.9z"/>
<path class="st0" d="M76.7,154.5c-4.8,0.6-9.6,0.9-14.4,0.8l-0.2-2.4l8.7-1.2l-0.6-4.4l5.2-0.7L76.7,154.5z"/>
<path class="st1" d="M145.3,80.1c-0.9,9.6-3.5,19-7.8,27.6l-3.8-2.2l8.7-26.4L145.3,80.1z"/>
<g>
	<path class="st1" d="M127.4,66.2c5.7,2.6,12.4,2.1,17.7-1.2c-0.3-2.2-0.7-4.4-1.1-6.6c-2.4,2.3-5.5,3.5-8.8,3.5
		c-1.5,0-2.9-0.3-4.3-0.8c-0.4,0.3-1,0.5-1.5,0.5c-0.8,0-1.5-0.4-2-1c-0.4-0.4-0.6-1-0.5-1.6v-0.3c-0.3-0.1-0.5-0.3-0.8-0.5
		c-5-5.1-5-13.2,0-18.2l1.3-1c2.2-1.8,5-2.8,7.8-2.8h0.3c-0.1-0.2-0.2-0.3-0.3-0.6c-1-1.8-2.1-3.5-3.3-5.2c-1.6,0.3-3.1,0.8-4.5,1.4
		c-2,0.9-3.9,2.3-5.5,3.9c0.6,0.5,0.9,1.1,0.9,1.9c0,1.4-1.1,2.6-2.5,2.6c0,0,0,0,0,0c-0.5,0-1-0.2-1.4-0.4c-1.3,2.2-2,4.7-2.3,7.2
		c1,3.7,1.8,7.4,2.3,11.2c0.8,1.5,1.9,2.9,3.1,4.1C123.5,63.9,125.4,65.2,127.4,66.2z"/>
	<path class="st1" d="M117.6,37.6c0-1.4,1.2-2.6,2.6-2.5c0,0,0,0,0,0h0.5c0.1,0,0.1-0.1,0.2-0.2c1.8-1.8,4-3.3,6.4-4.3
		c1.2-0.5,2.5-0.9,3.7-1.2c-1.2-1.5-2.4-3.2-3.7-4.7c-0.9-0.9-1.6-1.8-2.5-2.6c-1.2-1.3-2.5-2.6-3.9-3.9c-0.4,3-1.2,5.9-2.5,8.7
		c-1.5,3.6-3.8,6.7-6.8,9.2c1.6,2.7,2.9,5.5,3.9,8.5c0.5-2,1.3-3.9,2.3-5.7C117.7,38.4,117.6,38,117.6,37.6z"/>
	<path class="st1" d="M145.2,66.4c-5.5,3.1-12,3.5-17.8,1.1c-2.4-1-4.6-2.5-6.4-4.3c-0.7-0.7-1.3-1.4-1.9-2.2c0,0.5,0,1,0.1,1.4
		c0.1,1.7,0.1,3.4,0,5.2l8.1,2.2l2,0.5l1,0.3l-0.3,1l-2.5,7.5l7.6,2.2l3.2,0.9l1.6-5.3l5.4,1.2C145.7,74.2,145.6,70.3,145.2,66.4z"
		/>
	<path class="st1" d="M127.4,40.5c-0.2,0.1-0.3,0.2-0.4,0.3c-2.2,2.2-3.4,5.2-3.4,8.2c0,3.1,1.2,6,3.4,8.2c0.1,0.1,0.2,0.1,0.3,0.2
		h0.1c0.5-0.6,1.2-1,2-1c1.4,0,2.6,1.1,2.6,2.5c0,0,0,0,0,0c0,0.4-0.1,0.7-0.2,1.1c1.1,0.4,2.2,0.5,3.4,0.5c3.1,0,6-1.2,8.1-3.4
		l0.3-0.3c-1.5-6.8-4-13.3-7.4-19.5c-0.5,0-0.8-0.1-1.1-0.1C132.3,37.4,129.5,38.5,127.4,40.5z M139,47.9V48
		c0.1,0.1,0.1,0.1,0.1,0.2c0,0.1,0.1,0.1,0.1,0.2v0.7c0,0.1,0,0.2-0.1,0.3c-0.2,0.6-0.7,1.1-1.3,1.2c-0.1-0.2-0.2-0.5-0.3-0.8
		l-0.2,0.1c0.3,0.5,0.4,1.2,0.2,1.8c-0.3,0.9-1.3,1.4-2.2,1.2h-0.1c-1-0.3-1.5-1.4-1.2-2.4h0.1l-0.2-0.2v0.2c-0.2,0.5-0.2,1,0,1.4
		c-0.2,0-0.5,0-0.7-0.1c-1-0.3-1.5-1.3-1.2-2.2c0,0,0,0,0-0.1c0.1-0.5,0.5-0.9,1-1.1l-0.1-0.2c-0.4,0.2-0.7,0.4-0.9,0.8
		c-0.6-0.5-0.9-1.3-0.7-2c0.4-1,1.5-1.5,2.4-1.1c0.9,0.3,1.4,1.3,1.2,2.2c-0.1,0.1-0.1,0.1-0.1,0.2c-0.1-0.1-0.3-0.2-0.4-0.2
		c-0.4-0.1-0.9-0.1-1.3,0v0.2c0.4-0.1,0.8-0.1,1.2,0c0.4,0.1,0.8,0.4,1,0.8c-0.6,0.2-1,0.6-1.3,1.1l0.1,0.1c0.3-0.5,0.7-0.8,1.2-1
		c0.4-0.1,0.8-0.1,1.1,0.1c0.3,0.1,0.6,0.2,0.8,0.4l0.1-0.1c-0.3-0.2-0.6-0.4-0.9-0.5c-0.3-0.1-0.6-0.1-0.9-0.1c0-0.3,0-0.6,0.1-0.9
		c0.4-0.9,1.4-1.4,2.3-1.1C138.3,47.2,138.7,47.5,139,47.9z M136.4,45.1c0.7,0.3,1.2,1,1.2,1.8c-1-0.2-2,0.4-2.3,1.4
		c-0.1,0.1-0.1,0.2-0.1,0.3c-0.1,0-0.2-0.1-0.3-0.1s0.1-0.1,0.1-0.2c0.2-0.9-0.1-1.8-0.8-2.3c0.2-0.4,0.6-0.7,1-0.9
		C135.6,45,136,45,136.4,45.1z"/>
</g>
<g>
	<path class="st1" d="M86.5,129.6c-0.3-0.8-0.6-1.5-0.9-2.3c-0.2,0-0.3,0-0.4-0.1l-0.2,0.2c-0.8,0.9-1.6,1.9-2.3,2.9
		c0.8,0.3,1.5,0.8,2.3,1.1c0.6,0.3,1.2,0.6,1.8,0.8h0.2c0.1,0,0.2-0.1,0.3-0.1c-0.1-0.6-0.3-1.1-0.6-1.6L86.5,129.6z"/>
	<path class="st1" d="M76.7,133.6l1.3-1.3c0.4-0.3,0.8-0.7,1.1-1.1l0.7-0.7c-0.2-0.2-0.3-0.3-0.6-0.4c-0.3-0.2-0.8-0.5-1.2-0.9
		s-1-0.8-1.4-1.2c-0.1,0.1-0.1,0.1-0.2,0.1c0,0.9,0.1,1.9,0.1,2.8v2.6C76.6,133.6,76.6,133.6,76.7,133.6z"/>
	<path class="st1" d="M75.8,133.5v-2.6c0-0.9,0-1.8-0.1-2.6c-0.4-0.1-0.7-0.5-0.8-0.9c0-0.2,0-0.4,0.2-0.5c-0.5-0.4-1.1-0.7-1.6-1
		c-0.2-0.2-0.4-0.3-0.7-0.4c-0.1,0.3-0.4,0.4-0.7,0.4c-0.1,1.8-0.1,3.4-0.3,5.1c-0.1,1.3-0.2,2.7-0.4,4.1c-0.1,0.3-0.1,0.6-0.1,0.9
		h0.1c0.2,0.1,0.3,0.2,0.6,0.3c0.5-0.1,1-0.3,1.5-0.5c0.6-0.2,1.1-0.5,1.6-0.8c-0.2-0.2-0.3-0.3-0.2-0.5S75.2,133.6,75.8,133.5z"/>
	<path class="st1" d="M51.9,119.8c0.8,0.8,1.6,1.6,2.2,2.5c1.1,1.7,2,3.5,2.9,5.4c0.3-0.1,0.6-0.3,0.9-0.4c0.7-0.5,1.4-1,2.1-1.4
		c0.6-0.3,1-0.5,1.5-0.9c0.1-0.1,0.3-0.2,0.4-0.2c0.1-0.2,0.3-0.3,0.6-0.3c0.4-0.2,0.8-0.4,1.2-0.7c0.8-0.3,1.4-0.5,2.1-0.8
		c1.9-0.5,3.8-0.4,5.6,0.2c0.2,0.1,0.4,0.1,0.7,0.2c0.4,0.2,1,0.4,1.4,0.7c1.6,0.8,3.2,1.8,4.6,2.9c1,0.6,1.9,1.3,2.9,2.1
		c1.1-1.3,2.2-2.5,3.4-3.6c0.2-0.2,0.4-0.3,0.7-0.5c0.5-0.4,1.1-0.8,1.8-1.1c0.3-0.1,0.8-0.2,1.1-0.3l-1.1-2.6l-1.6-4.3l-0.1-0.1
		l-0.2-0.5l0.2-0.2l0.4-0.2l1.3-1l2.1-1.6l4.3-3.4l-4.3-8.2L86.7,97l-1.4-3l-0.2-0.4l0.1-0.4l1.5-3.9l2.1-5.2l2.4-5.8
		c-1.8-0.6-2.9-2.5-2.6-4.4c0-0.4,0.1-0.8,0.2-1.2c0.6-1.5,2-2.5,3.6-2.6l0.1-4.1c-1.3,0-2.6,0.3-3.7,1c-0.5,0.3-1,0.6-1.4,1
		L87.3,68c-0.2,0.1-0.3,0.2-0.6,0.3c-0.7,0.7-1.3,1.6-1.8,2.5c-0.5,1.1-0.6,2.3-0.6,3.5c0,1,0.2,2.1,0.6,3.1c0.4,1,1,1.9,1.8,2.6
		c0.2,0.2,0.5,0.5,0.8,0.6c0.6,1.4,0.1,2.5-0.8,3.9c-0.4,0.8-1.1,1.6-1.8,2.6s-1.3,2.1-2,3.5c-1,1.5-1.1,3.4-0.3,5.1l2.3,4.9
		l0.7,1.5c0.5,0.7,0.9,1.5,1.1,2.3c0.3,0.7,0.3,1.6,0,2.3c-0.3,0.9-0.9,1.6-1.8,2.1l-0.2,0.2c-2.1,1.2-4.4,2.2-6.7,2.9
		c-1.5,0.5-3,0.9-4.6,1.1c-0.7,0.1-1.4,0.1-2.1,0.2c-1.9,0.1-3.7,0.1-5.6-0.1c-0.7,0-1.4-0.1-2.1-0.2c-0.8-0.1-1.4-0.3-2.2-0.4
		c-0.5-0.1-1-0.2-1.5-0.4c-2.8-0.8-5.5-1.9-8-3.3c-2.1-1.3-4.1-2.8-5.9-4.5l-2,2.8l-2.5,3.5l2.5,2.2C46.8,115,49.4,117.3,51.9,119.8
		z"/>
	<path class="st1" d="M65.5,136h0.2c1.1,0.3,2.3,0.5,3.4,0.4h0.2c0.2-0.3,0.6-0.6,1-0.7c0.2-1.6,0.4-3.3,0.7-5
		c0.1-1.1,0.2-2.2,0.3-3.4c0-0.5,0.1-1.1,0.1-1.6h-0.1c-0.3-0.2-0.5-0.5-0.4-0.9v-0.1h-0.7c-0.8-0.1-1.6-0.1-2.4,0
		c0.1,0.1,0.1,0.2,0.1,0.3c-0.1,0.4-0.5,0.7-0.9,0.8c-0.2,1.5-0.6,3.1-0.9,4.6c-0.1,0.6-0.3,1.3-0.4,1.9l-0.7,2.6
		c0.4,0.2,0.7,0.6,0.6,0.9C65.6,135.9,65.6,135.9,65.5,136z"/>
	<path class="st1" d="M91.5,132.6l-2.6-6.6l-0.2-0.5c-0.2,0-0.4-0.1-0.6-0.3c-0.5,0.2-0.9,0.5-1.3,0.8c-0.1,0.1-0.3,0.2-0.4,0.4
		c0.1,0.1,0.1,0.1,0.1,0.2c0.1,0.2,0,0.4-0.2,0.7c0.2,0.4,0.4,0.9,0.6,1.3c0.2,0.3,0.3,0.6,0.4,1c0.3,0.8,0.6,1.5,0.9,2.3
		c0.3,0.1,0.7,0.2,0.8,0.4c0.1,0,0.1,0,0.1,0.1v0.2C89.8,132.7,90.6,132.7,91.5,132.6z"/>
	<path class="st1" d="M61.2,133.7l0.2,0.1c0.6,0.6,1.3,1,2,1.4c0.1-0.1,0.2-0.1,0.2-0.2c0.2-0.1,0.4-0.1,0.7-0.2
		c0.3-1.4,0.8-3,1.1-4.5c0.1-0.5,0.2-1,0.3-1.5c0.2-1,0.4-2.1,0.7-3.1c-0.2-0.2-0.4-0.4-0.4-0.7l-0.2,0.1c-0.7,0.2-1.3,0.5-2.1,0.9
		c-0.3,0.2-0.6,0.3-0.9,0.4c-0.3,1.1-0.5,2.1-0.9,3.1c-0.1,0.5-0.3,1-0.4,1.5l-0.5,1.4c0.4,0.2,0.6,0.6,0.4,1
		C61.4,133.6,61.4,133.6,61.2,133.7z"/>
	<path class="st1" d="M137.6,152.7c-0.5,1.7-2,3-3.7,3.4h-0.1c-1.1,0.3-2.3,0.1-3.3-0.4c-1.8-0.9-2.9-2.8-2.6-4.8v-0.1
		c0.1-0.4,0.2-0.9,0.3-1.3l-15.3-0.4h-0.7l-0.3-0.7l-6.6-18.1l-11.9,4.6l-0.9,0.3l-0.4-1l-0.1-0.3c-1,0.3-2.1,0.4-3.2,0.3
		c-0.3,0-0.5,0-0.8-0.1c-0.4,0-0.9-0.1-1.3-0.2c-0.6-0.1-1.2-0.3-1.8-0.5c-1.2-0.4-2.3-1-3.4-1.6c-0.1,0.1-0.2,0.2-0.2,0.3
		c-1,0.9-2.1,1.8-3.3,2.6c-1.4,1.1-3,1.9-4.6,2.4c-0.7,0.2-1.4,0.4-2.1,0.7l-3.2,0.3c-0.8,0-1.6-0.1-2.4-0.2
		c-0.7-0.1-1.4-0.3-2.1-0.5c-0.8-0.3-1.5-0.7-2.2-1.1c-0.5-0.3-1.1-0.7-1.5-1c-1.4-1.1-2.6-2.3-3.6-3.7c-0.1-0.2-0.2-0.4-0.3-0.5
		c-1.3,0.8-2.6,1.5-4.1,2.2c-1.1,0.6-2.2,1.1-3.4,1.4c-1.5,0.5-3,1-4.5,1.3c-3.2,0.7-6.5,0.1-9.3-1.6l-6.8,11.4
		c7.4,4.3,15.6,7.2,24.1,8.6c2.6,0.5,5.4,0.8,8,1h0.3l-0.3-2.6l-0.1-1h0.1l1.5-0.2l2.2-0.2l2.1-0.2l3-0.4l-0.4-4.4l3.1-0.4l2.1-0.3
		l4.1-0.5l0.6,4.7l0.7,4.7c2.1-0.3,4.2-0.8,6.3-1.3c0.7-0.1,1.2-0.3,1.8-0.4c0.8-0.2,1.4-0.4,2.1-0.7c3.5-1,6.9-2.3,10.1-3.9
		c1.8-0.9,3.5-1.9,5.3-3l2.8,4.6c1,1.8,3,3,5.1,3c7.7,1,9-3.3,11-0.3c0.2,2.9,1.8,5.5,4.2,7.1c2.2,1.8,5.2,2.4,7.9,1.4l0.2-0.1
		c2.5-0.7,4.7-2.4,5.9-4.7c0.1-0.1,0.1-0.2,0.1-0.3L137.6,152.7z"/>
	<path class="st1" d="M49.1,132.1c1-0.3,1.9-0.8,2.8-1.3c1.1-0.5,2.1-1.1,3.1-1.8c-0.7-1.4-1.2-2.8-2-4.1c-0.2,0.1-0.4,0.2-0.7,0.1
		l-0.4,0.8c-0.4,0.9-0.8,1.8-1.2,2.6c-0.7,1.2-1.2,2.3-1.8,3.4C49,132,49,132.1,49.1,132.1z"/>
	<path class="st1" d="M42.1,132.9c0.7-1,1.2-2.1,1.9-3.1s1-1.6,1.5-2.5c1.1-1.9,2.2-3.7,3.2-5.6c-0.2-0.4-0.2-0.8,0-1.2
		c-0.3-0.2-0.6-0.3-0.9-0.4l-3.8,6l-4.7,7.5c0.4,0,1.2,0.1,1.5,0.1C41.1,133.2,41.6,133,42.1,132.9z"/>
	<path class="st1" d="M51.9,123.5c-0.5-0.7-1.1-1.4-1.8-2c-0.2,0.2-0.5,0.4-0.8,0.4c-1.1,1.9-2.1,3.7-3.2,5.6
		c-0.8,1.2-1.4,2.4-2.2,3.6c-0.4,0.7-0.8,1.4-1.2,2c0.2,0.1,0.3,0.3,0.3,0.5c0.3-0.1,0.6-0.1,0.9-0.1c1-0.1,1.9-0.4,2.9-0.6l0.1-0.2
		c0.3-0.5,0.7-0.8,1.2-0.9c0.6-1.1,1.2-2.3,1.8-3.4s1.2-2.4,1.9-3.5c-0.2-0.3-0.2-0.7-0.1-1.1C51.8,123.7,51.9,123.6,51.9,123.5z"/>
	<path class="st1" d="M61.9,127l-0.4,0.3c-0.5,0.3-1,0.5-1.5,0.9l-0.9,0.5c-0.3,0.3-0.7,0.6-1.1,0.8c0.1,0.2,0.3,0.5,0.4,0.8
		c0.6,0.7,1,1.3,1.5,2l0.1,0.1h0.1c0.3-0.9,0.6-1.7,0.9-2.6c0.2-0.4,0.3-0.8,0.4-1.2C61.6,128,61.8,127.5,61.9,127z"/>
</g>
<g>
	<path class="st0" d="M94,3.3c-0.7-0.5-1.4-0.9-2.2-1.1C91.2,2.1,90.6,2,90,1.8c0,0.3,0.1,0.6,0.1,0.8l0.2,0.1
		C91,2.8,91.6,3,92.3,3.2l1.9,0.3C94.1,3.5,94.1,3.4,94,3.3z"/>
	<path class="st0" d="M92.3,3.2l-2.1-0.4v2c0.6-0.1,1.3-0.2,1.9-0.2c0.6-0.2,1.1-0.4,1.7-0.6C93.3,3.6,92.8,3.4,92.3,3.2z"/>
	<path class="st0" d="M98.7,4.5L99.9,5h0.2C99.7,4.8,99.2,4.7,98.7,4.5z"/>
	<path class="st0" d="M111.9,12.2c0-0.1,0-0.1,0.1-0.1c0.1-0.2,0.2-0.4,0.3-0.6l-0.3-0.2l-0.3-0.2l0.1,1.1H111.9z"/>
	<path class="st0" d="M108.9,25c-1.1-1-2.1-2-3.2-3.1c0,0.4,0,0.8,0,1.1l0.8,1.5l1.6,3c-0.8-0.9-1.4-1.8-2-2.9
		c-0.2-0.5-0.4-1.1-0.5-1.6l-0.8-1.5c0.1,1.7,0.1,3.4-0.1,5.1l-0.1,0.3c1.8,1.7,3.4,3.6,4.7,5.6c0.9-0.9,1.7-2,2.5-3
		c0.2-0.3,0.5-0.6,0.7-0.9c0.3-0.4,0.5-0.9,0.8-1.2c-0.2-0.2-0.5-0.4-0.8-0.5c-0.2-0.1-0.5-0.3-0.7-0.4c-1.2-0.7-2.2-1.6-3.2-2.5
		c-0.3-0.3-0.6-0.6-0.9-0.9l-1.5-1.2C107.1,23,108,24,108.9,25z"/>
	<path class="st0" d="M106.3,20.7c0.3,0.9,0.9,1.8,1.7,2.4c0.6,0.5,1.3,1,2,1.5l2.1,1.6l0.7,0.6l0.9,0.6c0.9-1.6,1.7-3.3,2.2-5
		c-1,0-2.1-0.2-3.1-0.4h-0.2c-0.1-0.1-0.3-0.1-0.4-0.1c-0.8-0.2-1.6-0.4-2.4-0.7c-1-0.2-2-0.4-2.9-0.6
		C106.6,20.6,106.4,20.7,106.3,20.7z"/>
	<path class="st0" d="M112.9,11.9l-0.2-0.1l-0.1-0.1l-0.1,0.3h0.2C112.7,11.9,112.8,11.9,112.9,11.9z"/>
	<path class="st0" d="M104.3,26.4c-0.1-1.5-0.2-3.1-0.1-4.6c-0.4,0.4-0.7,0.9-1,1.3l-0.2,0.5l-0.4,1.2
		C103.2,25.4,103.8,25.8,104.3,26.4z"/>
	<path class="st0" d="M88.6,13c-0.3,1.1-0.8,2.2-1.2,3.4c1.9,0.7,3.9,1.4,5.7,2.3c-0.1-0.4-0.2-0.7-0.2-1.1
		c-0.2-0.8-0.2-1.7-0.2-2.5c-0.3,0.3-0.6,0.6-0.8,1l-0.2,0.4c-0.1,0.3-0.2,0.6-0.2,0.9c0-0.3,0.1-0.6,0.2-0.9c0-0.1,0-0.2,0.1-0.3
		c0.1-0.6,0.3-1,0.4-1.5c-0.3,0-0.8,0.4-1.2,1.1l0.7-1.3c-0.3,0-0.5,0-0.8,0.1l-0.5,0.3c-0.4,0.2-0.7,0.4-1.1,0.6
		c0.2-0.3,0.4-0.5,0.8-0.7c0.3-0.1,0.6-0.1,0.9-0.2l0.8-0.4c-0.3-0.3-0.7-0.6-1.1-0.8c-0.3-0.1-0.6-0.1-0.9-0.2L88.6,13z"/>
	<path class="st0" d="M89.2,11.1c-0.1,0.6-0.3,1.1-0.4,1.6c0.4,0.1,0.7,0.2,1.1,0.3c0.3,0.1,0.5,0.2,0.8,0.3
		c0.4,0.1,0.9,0.2,1.3,0.3l-0.1-0.1c-0.7-0.6-1.5-1-2.3-1.2c0.6,0.1,1.2,0.3,1.8,0.6c-0.2-0.2-0.3-0.5-0.5-0.7L90,11.6L89.2,11.1z"
		/>
	<path class="st0" d="M98.7,15.6l-1.4-0.3c-0.6-0.1-1.2-0.2-1.8-0.5c-0.5-0.1-1-0.2-1.5-0.3c-0.1,0-0.2,0-0.3,0.1
		c0.2,0.5,0.5,1,0.9,1.3l1.2,1l0.9,0.7c0.7-0.1,1.4,0,2.1,0.1l1,0.3c0.6,0.2,1.2,0.4,1.7,0.7c0.6,0.1,1.2,0.3,1.8,0.4
		c-0.1-0.1-0.1-0.2-0.2-0.3c-1.2-1-2.5-1.7-4-2.1c1,0.3,2.1,0.7,3.2,1c-0.3-0.4-0.7-0.8-1.1-1.2l-1.1-0.8
		C99.6,15.7,99.2,15.6,98.7,15.6z"/>
	<path class="st0" d="M111.6,18.3c-0.2-0.7-0.3-1.4-0.4-2.1c0-0.3,0-0.7,0.1-1c-0.1-0.5-0.1-0.9-0.2-1.4c-0.7,0-1.3,0.2-1.9,0.6
		l-0.9,0.6l-1.1,0.9c0.3-0.3,0.7-0.6,1.1-0.9l0.6-0.4l1.6-1.3c-0.9-0.1-1.7,0-2.5,0.3c0.7-0.2,1.2-0.6,1.9-0.8
		c-0.4-0.2-0.7-0.3-1.1-0.4s-0.7-0.1-1-0.1c0,0.7-0.2,1.4-0.4,2c-0.2,0.7-0.6,1.3-1,1.9c-0.2,0.8-0.4,1.5-0.6,2.2
		c0,0.1,0.1,0.2,0.1,0.3c0,0.2,0.1,0.5,0.2,0.7c1,0.2,2,0.2,3.1,0c0.7-0.3,1.4-0.5,2.1-0.8L111.6,18.3z"/>
	<path class="st0" d="M107.3,12.2l-2.2-0.2c0.7-0.2,1.3-0.2,2-0.1c0.1,0.1,0.2,0.1,0.3,0.1l0.3-1.5c-0.8-0.6-1.6-1.1-2.4-1.6
		c0.9,0.4,1.7,0.9,2.5,1.4l0.2,0.2c0.5,0.3,0.9,0.7,1.3,1.1l1.1,0.7V12c-0.7-0.9-1.5-1.7-2.4-2.4c0.7,0.5,1.4,1.1,2.1,1.6
		c-0.1-0.3-0.2-0.7-0.4-0.9c-0.2-0.2-0.4-0.5-0.6-0.7V9.4c-2.9-1.6-5.8-3.1-8.9-4.3L99.9,5l-1.2-0.2l-1.2-0.1h-0.3
		c0,0.4,0.5,1,1.3,1.8l0.3,0.2l1.8,1.1c1.1,0.8,2.3,1.5,3.5,2.3c-1.7-0.7-3.2-1.7-4.6-2.9c-0.2-0.1-0.4-0.3-0.7-0.4l-0.3-0.3
		l-1.4-0.8c0.5,0.6,1.1,1.2,1.6,1.8c0.3,0.2,0.5,0.6,0.9,0.8l-0.9-0.7l-2.2-1.9c-0.2,0.7,0.6,1.2,1,2.2c0.5,0.8,0.9,1.7,1.2,2.6
		c0.1,0.1,0.1,0.3,0.1,0.4l-0.1-0.2L97.2,8c-0.6-1-1-1.9-1.5-2.8c-0.7,0.2-1.2,1.1-1.9,2c-0.5,0.5-1,1.1-1.4,1.7
		c-0.1,0.2-0.3,0.5-0.4,0.8c0.1-0.3,0.3-0.5,0.4-0.8c0.3-0.6,0.7-1.2,1-1.8l1.3-2.3V4.7c-1.1,0.3-2.1,0.9-2.9,1.8
		c0.6-0.7,1.2-1.3,1.9-1.9c-0.5,0-1.1,0-1.6,0l-1.4,0.5l-0.4,0.2c-0.1,1.9-0.5,3.8-1,5.6c0.2,0.1,0.4,0.3,0.7,0.4
		c0.3,0.3,0.6,0.6,0.9,0.9l1.4,1h0.1c0.1-0.5,0-1.1-0.1-1.6l-0.3-0.8c-0.3-0.8-0.7-1.6-1.1-2.3c0.5,0.8,1,1.7,1.3,2.6
		c0,0.1,0.1,0.3,0.1,0.4c0.2,0.5,0.4,1,0.6,1.4c0.1,0,0.1,0,0.1-0.1c0.2-0.3,0.1-1.2-0.1-2.5c0.2,0.7,0.3,1.3,0.6,2
		c0.2-0.8,0.6-1.8,0.8-2.4c0.1-0.5,0.3-1,0.6-1.5c0.1,0.8,0,1.6-0.3,2.3c-0.1,0.3-0.2,0.6-0.3,0.9c-0.1,0.1-0.2,0.3-0.2,0.4
		l-0.3,1.1c0,0.1,0.1,0.1,0.1,0.2c0,0.1,0,0.2,0.1,0.3c0.6,0.1,1.1,0.1,1.7,0c0.4-0.1,0.9-0.3,1.3-0.5h0.1v-0.1l0.1,0.1
		c0.6-0.3,1.3-0.6,2-0.8l0.8-0.3c-0.2,0.2-0.5,0.4-0.8,0.4c-0.6,0.3-1.1,0.6-1.8,0.8c0.6,0.2,1.2,0.6,1.8,1c0.3,0.2,0.5,0.4,0.9,0.7
		s0.5,0.4,0.8,0.7l0.8,0.8c0.8,0.6,1.6,1.1,2.4,1.7c0.1,0,0.2,0.1,0.3,0.1c0.1-0.8-0.6-1.9-1-3.3s-1.3-3-1.6-4.7
		c0.6,1.3,1.2,2.8,1.8,4.1s1.1,2.5,1.7,3.7c0-0.1,0.1-0.1,0.1-0.2c0.3-0.7,0.2-2.2-0.1-4.3c0.2,1.2,0.5,2.3,0.8,3.5
		c0.3-0.3,0.6-0.7,0.9-1.1c0.1-0.4,0.2-0.9,0.3-1.3C106.9,14,107.1,13.1,107.3,12.2z"/>
	<path class="st0" d="M111.2,12.1c0.3-0.3,0.5-0.6,0.5-1c-0.7-0.5-1.5-1-2.3-1.4l0.3,0.6c0.4,0.5,0.9,1.1,1.3,1.6
		C111,12,111.2,12,111.2,12.1z"/>
	<path class="st0" d="M116.1,14.2c-1-0.8-2-1.5-3.1-2.2l-0.3,0.3l-0.2,0.2v0.2c-0.1,0.1-0.1,0.2,0,0.3c0,0,0,0,0,0l0.2,0.2
		c0.5,0.2,0.9,0.4,1.4,0.6l1.3,0.2L116.1,14.2z"/>
	<path class="st0" d="M117,16.6c0-0.6,0-1.2,0.1-1.8l-0.7-0.4c-0.4-0.1-0.9-0.1-1.3-0.2s-0.7-0.2-1-0.3l-1-0.1
		c0.9,0.5,1.8,0.8,2.8,1.1c-0.8-0.2-1.6-0.4-2.4-0.7c0.2,0.3,0.5,0.5,0.8,0.8l1.1,0.7L117,16.6z"/>
	<path class="st0" d="M112.6,14c-0.1,0-0.2-0.1-0.3-0.1c0,0.6,0.1,1.2,0.4,1.8l1.1,1.4l0.2,0.4l2.3-0.9c-0.6,0.5-1.3,0.8-2.1,1.1
		l1.4,2c-0.6-0.6-1.1-1.2-1.5-1.9c-0.4,0.2-0.9,0.4-1.4,0.6c-0.2,0.1-0.4,0.2-0.7,0.2l-0.2,0.1v0.1l-0.1-0.1
		c-0.3,0.1-0.8,0.2-1.1,0.3c-0.5,0.1-1,0.2-1.5,0.2c-0.6,0.2-1.2,0.5-1.7,0.7c1.5,0.1,3.1,0,4.6-0.2h0.4l-0.4,0.1
		c-1.4,0.2-2.8,0.4-4,0.7c0.5,0.2,1,0.5,1.6,0.7l2,0.4h0.3l0.7,0.1c1.1,0.2,2.1,0.4,3.2,0.6c0.5-1.8,0.9-3.6,1.1-5.5
		c-0.5-0.2-0.9-0.5-1.3-0.8c-0.5-0.3-1-0.6-1.4-1c-0.5-0.3-1-0.6-1.6-0.9L112.6,14z"/>
	<path class="st0" d="M107.8,12l0.9,0.3c0.4,0,0.9,0.1,1.3,0.1c-0.2-0.3-0.4-0.6-0.7-0.9l-1.5-0.9C107.9,11,107.9,11.5,107.8,12z"/>
	<path class="st0" d="M111.7,18.3l0.3-0.2l0.7-0.2l1.2-0.4c-0.3-0.3-0.6-0.7-0.8-1.1c-0.1-0.3-0.3-0.5-0.4-0.8l-0.7-1v0.1
		c0.2,0.6,0.4,1.2,0.7,1.8c0.1,0.2,0.2,0.3,0.3,0.6l-0.3-0.4l-0.7-1.3l-0.4-0.9c-0.2,0.2-0.3,0.5-0.4,0.9c0,0.3,0.1,0.7,0.1,1
		L111.7,18.3z"/>
	<path class="st0" d="M98.7,21.9c1.4,0.9,2.6,1.9,3.8,3c0.2-0.4,0.3-0.8,0.5-1.2l0.1-0.3c0.2-0.8,0.4-1.6,0.8-2.5v-0.1
		c-0.9,0.4-1.6,1-2.1,1.9c0.3-0.7,0.7-1.3,1.1-2.1c-0.5,0-1,0-1.4,0c-0.3,0.2-0.6,0.3-0.9,0.4L98.7,21.9z"/>
	<path class="st0" d="M98.7,15.4l1.2,0.2l-1.2-0.9l-1.9-1.3c-0.2,0.1-0.4,0.1-0.7,0.2c-0.3,0.1-0.6,0.1-0.9,0.1l-0.9,0.3
		c1,0.1,2,0.1,3-0.1c-1,0.2-1.9,0.3-2.6,0.4c0.3,0.2,0.6,0.3,0.9,0.4l1.3,0.2C97.4,15.2,98.1,15.3,98.7,15.4z"/>
	<path class="st0" d="M98.7,18.1c-0.7-0.2-1.3-0.3-2-0.6l1.3,1c-1.1-0.6-2.1-1.3-3-2.1c-0.2-0.2-0.4-0.4-0.5-0.6l-0.8-0.7
		c0.4,0.7,0.9,1.3,1.4,1.9c-0.6-0.7-1.2-1.2-1.9-1.9c-0.1,0.2-0.1,0.4,0,0.7l0.5,0.9c0.3,0.6,0.6,1.2,0.9,1.8
		c-0.3-0.6-0.8-1.1-1.1-1.6c-0.1-0.3-0.2-0.7-0.3-1l-0.1-0.2c0.1,0.9,0.1,2.2,0.2,3.1c1.8,0.9,3.6,1.9,5.3,3.1v-0.1
		c0.3-0.5,0.8-0.8,1.3-1c0.4-0.2,0.9-0.3,1.4-0.3c0.4-0.2,0.9-0.5,1.4-0.8c-0.5-0.4-0.9-0.7-1.5-1c-0.6-0.1-1.2-0.3-1.8-0.5
		L98.7,18.1z"/>
</g>
<path class="st0" d="M123.6,139.5c0,1.6-1.2,2.8-2.8,2.8c0,0-0.1,0-0.1,0c-1.6,0-2.8-1.3-2.8-2.8s1.3-2.8,2.8-2.8
	C122.3,136.7,123.6,137.9,123.6,139.5C123.6,139.5,123.6,139.5,123.6,139.5z M118.6,139.5c0,1.2,1,2.1,2.2,2.1s2.1-1,2.1-2.2
	c0-1.2-1-2.1-2.2-2.1C119.6,137.3,118.6,138.3,118.6,139.5C118.6,139.5,118.6,139.5,118.6,139.5z M120.4,141h-0.7v-2.8
	c0.4-0.1,0.7-0.1,1.1-0.1c0.3,0,0.7,0,1,0.2c0.2,0.2,0.3,0.4,0.3,0.6c0,0.3-0.3,0.6-0.6,0.6l0,0c0.3,0.1,0.5,0.4,0.5,0.7
	c0,0.2,0.1,0.5,0.2,0.7h-0.7c-0.1-0.2-0.2-0.4-0.2-0.7c0-0.3-0.2-0.4-0.6-0.4h-0.3L120.4,141z M120.4,139.4h0.3
	c0.4,0,0.6-0.1,0.6-0.4s-0.2-0.4-0.6-0.4c-0.1,0-0.2,0-0.4,0L120.4,139.4z"/>
<path class="st0" d="M196.8,30.2l-0.5,5.1c-4.6-0.2-10.3-0.4-15.4-0.4c-7.9,0-11,0.2-11,8.3c0,6,2,7.7,6.9,8.9l11,2.8
	c8.4,2,11,6.9,11,15.3c0,12.5-5.5,14.8-18.2,14.8c-5.7,0-11.3-0.5-16.9-1.5l0.5-5.1c9.2,0.3,12.1,0.5,16.6,0.4c8.4,0,11-1.3,11-8.8
	c0-6.3-2.1-7.8-6.9-9l-11.3-2.8c-7.9-2-10.7-6.9-10.7-15.1c0-12.7,5.5-14.4,17.7-14.4C186.1,28.7,191.5,29.2,196.8,30.2z"/>
<path class="st0" d="M244.5,30.2l-0.7,5.3c-4.7-0.5-9.4-0.8-14.1-0.7c-10.7,0-14,5.4-14,22s3.4,22,14,22c5.1,0.1,10.2-0.2,15.2-0.9
	l0.7,5.2c-4.6,1.3-8.8,1.8-16,1.8c-15.7,0-21.4-7.4-21.4-28.2s5.7-28.2,21.4-28.2C234.7,28.5,239.7,29,244.5,30.2z"/>
<path class="st0" d="M265.9,84.1h-7V29.6h7V84.1z"/>
<path class="st1" d="M319.3,35.8h-17.6v48.3h-6.9V35.8h-17.5v-6.2h42.1V35.8z"/>
<path class="st1" d="M362.7,78.3l0.3,5.4c-7.3,0.5-15.5,0.5-23.4,0.5c-6.4,0-10.4-3.6-10.5-9.5V39c0.1-5.8,4.1-9.5,10.5-9.5
	c7.8,0,16.1,0,23.4,0.5l-0.3,5.4h-21.9c-3.2,0-4.7,1.6-4.7,5.2v11.8h23.5v5.6h-23.5V73c0,3.7,1.5,5.3,4.7,5.3L362.7,78.3z"/>
<path class="st1" d="M411.8,30.2l-0.7,5.3c-4.7-0.5-9.4-0.8-14.1-0.7c-10.7,0-14,5.4-14,22s3.4,22,14,22c5.1,0.1,10.2-0.2,15.2-0.9
	l0.7,5.2c-4.6,1.3-8.8,1.8-16,1.8c-15.7,0-21.4-7.4-21.4-28.2s5.7-28.2,21.4-28.2C401.9,28.5,406.9,29,411.8,30.2z"/>
<path class="st1" d="M464.4,29.6v54.5h-6.9V57.9h-25.1v26.1h-7V29.6h7v22.3h25.1V29.6H464.4z"/>
<path class="st0" d="M173.8,136.5H165v-40h8.8V136.5z"/>
<path class="st0" d="M219,133.3c0,2.1-1,3.2-3.1,3.2h-5.5c-1.9,0-2.7-0.9-3.5-2.6l-10.5-21.3c-1-2-1.8-4.1-2.4-6.2h-0.6
	c0.3,2.1,0.4,4.2,0.4,6.4v23.8h-8.4V99.7c-0.2-1.6,0.9-3,2.5-3.2c0.2,0,0.5,0,0.7,0h5.4c1.9,0,2.7,0.9,3.5,2.6l10.1,20.7
	c0.9,1.7,2,4.2,2.9,6.4h0.6c-0.2-2.3-0.4-4.5-0.4-6.7v-23h8.4V133.3z"/>
<path class="st0" d="M255.6,97.3l-0.6,6c-3.4-0.1-8.3-0.2-12.5-0.2s-5.8,0.2-5.8,3.6c0,2.8,1.2,3.5,4.2,4.5l7.6,2.6
	c6.4,2.3,8.5,5.9,8.5,11.8c0,9.1-3.9,11.5-14.8,11.5c-4.6,0-9.2-0.5-13.7-1.5l0.5-6.4c7.4,0.2,10.7,0.3,13.2,0.3
	c4.6,0,5.9-0.6,5.9-3.9c0-2.8-1.1-3.5-3.8-4.4l-8-2.8c-6.1-2.2-8.3-5.8-8.3-11.7c0-9.2,4.2-11.1,14.6-11.1
	C246.9,95.7,251.3,96.2,255.6,97.3z"/>
<path class="st0" d="M295.3,103.7h-11.9v32.8h-8.9v-32.8h-11.9v-7.2h32.8V103.7z"/>
<path class="st0" d="M312.5,136.5h-8.9v-40h8.8L312.5,136.5z"/>
<path class="st0" d="M352.6,103.7h-12v32.8h-8.9v-32.8h-11.9v-7.2h32.7V103.7z"/>
<path class="st0" d="M391.8,120.5c0,12.2-4.2,16.7-15.6,16.7c-12.1,0-16.4-4.5-16.4-16.7V96.5h8.8v24.1c0,7.4,1.7,9.6,7.2,9.6
	s7.1-2.2,7.1-9.6V96.5h8.9L391.8,120.5z"/>
<path class="st0" d="M430.6,103.7h-11.9v32.8h-8.9v-32.8h-12v-7.2h32.8V103.7z"/>
<path class="st0" d="M463.6,129.6l0.4,6.5c-5.5,0.6-12.3,0.6-18.5,0.6c-5.3,0-8.8-3.1-8.8-8.1v-24.3c0.1-4.9,3.5-8,8.8-8
	c6.2,0,13.1,0,18.5,0.6l-0.4,6.6h-15.3c-1.9,0-2.7,0.9-2.7,3v6.1h16v6.4h-16v7.7c0,2.1,0.8,3,2.7,3H463.6z"/>
</svg>
